<?xml version="1.0" encoding="utf-8"?>
<!-- Generator: Adobe Illustrator 18.0.0, SVG Export Plug-In . SVG Version: 6.00 Build 0)  -->
<!DOCTYPE svg PUBLIC "-//W3C//DTD SVG 1.1//EN" "http://www.w3.org/Graphics/SVG/1.1/DTD/svg11.dtd">
<svg version="1.1" id="Layer_1" xmlns="http://www.w3.org/2000/svg" xmlns:xlink="http://www.w3.org/1999/xlink" x="0px" y="0px"
	 viewBox="0 0 612 792" enable-background="new 0 0 612 792" xml:space="preserve">
<g>
	<path d="M185.1,308.9c-45.8-9.4-93,16.9-101.4,23.7s-11.3,15.6-9.8,23.3c1.5,7.6,3.9,6.4,3.9,6.4c6.6-23.7,38.1-36.3,38.1-36.3
		c4.3-1.9,8.7-3.7,12.6-5.2c10.2-4,20.9-6.5,31.8-7.4c29.4-2.4,38.3,7.5,26.7,26.2c-13.8,22.4-45.3,25.4-45.3,25.4
		c10.6-21.4,15.6-26,23.4-36c7.8-10.1,13.2-9.3,11.4-12.6c-1.8-3.3-12.6,2.8-12.6,2.8c-19.7,10.3-35.4,45.5-35.4,45.5
		s-3.3,0.6-8.1-0.2c-4.8-0.9-7.6-0.7-5.2,3.8c2.4,4.5,8.8,3.2,8.8,3.2l-3.6,4.1c-48.1-9.9-72.4,17.8-75.4,33.8
		c-2.8,15.1,1.3,41.8,50.8,43.7c49.5,1.9,81.3-25,85.6-50.4c4.3-25.4-26.9-33.6-26.9-33.6C195.1,362.2,228.8,317.8,185.1,308.9z
		 M167.8,401.5c-4,17-28.5,44.7-70.3,46.7s-54.6-32.6-32.3-53s51.8-13.4,51.8-13.4c-15.8,34.5-34.5,46.7-38,48.6
		c-1.9,1-6.3,0-6.8,2.5c-0.2,0.9,0.3,1.5,0.8,1.8c0.4,0.3,0.8,0.4,1.3,0.5c11.5,1.8,33.8-16.6,39.5-25.7
		c5.8-9.2,14.5-23.9,14.5-23.9c8.8,2.7,11.4,15.5,13.7,15s1.9-4.7,1.9-4.7c-1.6-9.6-12.3-15-12.3-15l5.8-9.7
		C160,371.4,171.7,384.5,167.8,401.5z"/>
	<path d="M423.2,362.6c-0.1,0.5-0.2,1-0.3,1.5c-0.6,2.3-2.3,7.3-6.7,10.5c-5.9,4.2-0.9,6.5,7,3.5c7.9-3,13-9.2,9.2-12.5
		c-3.8-3.3-3.8-6-6.5-6C423.8,359.6,423.3,361.7,423.2,362.6z"/>
	<path d="M314.5,372.9c-4.2-4.3-30.6-0.4-36.1,0.5c-0.4,0.1-0.7-0.4-0.5-0.7c3.8-6.2,7.7-7.8,6.5-10.1c-1.2-2.4-9.1,0.3-13.1,2.2
		c-3.6,1.8-6.1,8.6-6.5,9.9c0,0.1-0.1,0.2-0.3,0.3c-5.8,2.1-11.9,1.1-16.9-2c-5-3.2-4,0.7-0.5,5.8c2.8,4,9.1,3.4,11.6,3
		c0.4-0.1,1.2-0.4,1-0.1c-0.9,1.4-10.3,15.6-13.8,20.8c-1.8,2.7-2.6,2.9-5.2,4.7l-22.1,15.8c-0.5,0.4-1.3-0.2-1-0.8
		c9.3-20.6,23.6-30.8,25.2-34.6c1.2-3-5.7-2.4-9-1.9c-1,0.1-2,0.7-2.6,1.5l-1.1,1.4c-11.9-6-25.6,0.2-31.8,3.9s-14.5,11.1-18.8,23.1
		c-4.3,12-0.8,19,2.2,19.8s8.5-1.8,13.9-6.6c4.2-3.8,12.9-12.4,16.4-15.9c0.2-0.2,0.4,0.1,0.3,0.3c-10.7,15.7-6.5,18.6-3.1,21.6
		c3.5,3.2,4.5-1.1,9.7-7c4.3-5,12.7-9.5,15.2-10.7c0.2-0.1,0.5,0.1,0.3,0.3c-3.3,6.1-6.7,15.1-7.2,20.5c-0.6,6.2,2.7,12.5,6.8,14.2
		s6.8-0.4,6.5-1.3c-0.3-0.9-3.7-1.4-3.7-1.4c-4.1-4.2-4.9-11.7,5.7-25.9c10.1-13.6,28.3-41,29.9-43.5c0.1-0.1,0.2-0.2,0.3-0.2
		c2.2-0.3,21-2.5,29.3-3.4c8.8-1,10.9,6.8,13.1,4.4C317.6,378.3,314.5,372.9,314.5,372.9z M198.1,420.6c-0.8,0.7-1.6,1.3-2.4,2
		c-2,1.8-6.1,5.2-7.1,4c-1.3-1.6,1.6-13.1,12.5-24.2c10.2-10.5,16.1-14.4,22.8-10.5c0.7,0.4,0.8,1.3,0.3,1.9
		C220.7,397.9,207.8,412.7,198.1,420.6z"/>
	<path d="M308.4,387.9c-5.6-6-14.1-4.1-25.4,1.7c-11.1,5.6-16,14-16.8,15.4c-0.1,0.1-0.2,0.2-0.3,0.2c-1.2-0.2-4.9-0.4-5.7,2.4
		c-0.6,2.3,1.2,2.9,2.1,3.1c0.2,0,0.3,0.3,0.2,0.5c-4,7.9-5.6,22,3.9,24.2c9.6,2.3,21.4-9.6,25.4-12.6c4-3,3.9-5.2,3.9-7.6
		c0-2.4-2.2-2.1-3.5,0.2s-14.2,15.1-19.8,13.6c-5.1-1.4,0.7-14.3,1.8-16.7c0.1-0.2,0.3-0.4,0.6-0.4c12.2,0.2,21.6-5.7,21.6-5.7
		c9.4-5,12.4-9.6,13.2-12.7C310,391.6,309.8,389.4,308.4,387.9z M302.7,391.9c-0.6,1.7-2.5,5.6-8.1,9.9c-5.8,4.4-12.4,5.2-15,5.4
		c-0.5,0-0.8-0.5-0.5-0.9c1.4-1.7,4.9-5.6,9.6-9.4c5.1-4,11.2-5.3,13.4-5.7C302.5,391.1,302.8,391.5,302.7,391.9z"/>
	<path d="M567.4,304.9c-0.9-1.5-2.4-2.6-4.1-3.1c-23-5.8-54.5,35.5-67.8,54.5c-12,17.2-29.5,43.4-33.4,49.5
		c-0.5,0.8-1.3,1.3-2.2,1.5c-8.8,2.3-25.7,15.7-30.2,19.3c-0.3,0.3-0.8-0.1-0.6-0.5c2.6-5.9,13.1-21.6,18.8-29.1
		c6.2-8.2,29-41.2,34-48.2c5-7.1,19.4-25.5,29-35c9.3-9.1,18.3-8.7,18.9-7.4c0.2,0.4,2.2,2.8,4.4,1.3c0.3-0.2,0.8-0.9,0.9-1.3
		c0,0,0,0,0,0c0.3-2.2-1.4-4.3-3.5-4.9c-20.4-6.2-48,27.8-65.7,51.6c-15.8,21.1-31,45.4-35.2,52.1c-0.6,1-1.6,1.6-2.7,1.7
		c-5,0.6-14.7,7.4-18.9,11.3c-4.8,4.4-8.4,6.5-8.4,6.5c0-1.3,0.9-6.1,9.1-15.5s12.1-17.4,12.8-20.7s-2.6-2.8-6.5-2.1
		c-4,0.7-8.1,2.9-10.2,3.6s-7.5,1-7.5,1c0.9-3.4-1.3-9.4-2.6-12.5c-1.3-3-3-1.3-3.8,1.8s-2.8,10.8-12.2,22.9s-25.1,21.5-25.1,21.5
		c7.1-9.3,11.1-20.1,14.3-25.5c3.2-5.4,5.9-13.4,0-13.8c-5.9-0.4-8.8,2.7-12.5,3.4s-5.3,1.2-5.3,1.2c-2-3.5-6.1-4.7-9.8-5
		c-4.5-0.4-9,0.5-13,2.4c-13.8,6.4-8.9,15.7-8.4,17.3c0.6,1.8,4.5,10.6,4.5,10.6c3,11.8-4,16.1-9.3,16.6c-5.3,0.4-9.3-0.4-8.6-9.9
		s4.8-11.8,6.6-12.8c0.3-0.2,0.5-0.3,0.7-0.5c1-0.9,0.4-2.5-0.9-2.5c-1.1,0-2.8,0.6-6.4,1.6c-6.3,1.9-10.5,7.1-8.9,16.6
		c1.3,8,8.6,15,25.5,10.7c14.9-3.8,11.5-24.5,8.7-29.3c-3.3-5.7-7.4-14.1,2.3-16.7c9.7-2.5,8.8,6.4,6.5,8.9
		c-2.3,2.5-6.8,8.2,2.8,4.6s8-10.9,8-10.9c5,4.1,9.4-0.6,9.4-0.6s-13,25-16.5,30.4c-3.5,5.4-4.9,8.4-1.5,13.2
		c3.4,4.7,7.7,0,12.5-3.4c6.1-4.2,21-16,28.6-23.3c7.6-7.4,14.3-15.5,14.3-15.5s0.8,0.6,2.7,2.3c1.9,1.7,7.1-1.3,7.1-1.3
		c-14,19-22.2,33.4-18.4,39.1c3.4,5,7.3,1.3,8.8-0.2c2.8-2.8,5.3-4.7,5.3-4.7c8.4-7.3,17-12.3,20-13.9c0.3-0.1,0.5,0.2,0.3,0.4
		c-10.1,13.4-4.8,20.9-0.2,21.5c4.7,0.6,8.2-5,14.8-10.1c5.2-4,13.2-8.7,16.3-10.5c0.3-0.2,0.5,0.2,0.4,0.4c-2,2.6-5.5,9.1-4.1,15.2
		c1.5,6.6,8.1,5.6,15.7-1.5c7.6-7,16.5-12.1,16.5-12.1c-1.8,5.9-2.9,16.9,6.8,18.4c9.6,1.5,20.8-9.9,24.8-12.7
		c4-2.9,3.1-4.6,3.7-6.9c0.6-2.4-1.1-3.8-3.6-0.3c-2.5,3.4-15.2,15.5-20,13.5c-4.8-2,2.1-16.4,2.1-16.4c22.5-1,38.5-16,35.5-23
		c-3-7.2-11.1-5.7-11.1-5.7c-18.6,2.6-32.7,21.4-32.7,21.4s-3.4-1.2-5.3,1.6c-1.9,2.8,0.9,4.1,0.9,4.1c-4.3,2.6-18.1,12.2-22.4,15.3
		c-0.3,0.2-0.8-0.1-0.6-0.5c8.7-16.3,36.2-53.3,36.2-53.3c24.5-38.4,44.1-57.5,51.3-63.2s13.1-2.9,14.9-1.2S569.3,308.2,567.4,304.9
		C567.4,304.9,567.4,304.9,567.4,304.9z M501.9,406.3c1.4-1.7,4.9-5.6,9.6-9.4c5.1-4,11.2-5.3,13.4-5.7c0.4-0.1,0.7,0.3,0.6,0.7
		c-0.6,1.7-2.5,5.6-8.1,9.9c-5.8,4.4-12.4,5.2-15,5.4C501.9,407.2,501.6,406.7,501.9,406.3z"/>
</g>
</svg>
